<svg width="16" height="16" viewBox="0 0 16 16" fill="none" xmlns="http://www.w3.org/2000/svg">
<path d="M7.20514 3.56C7.46821 3.51968 7.73399 3.49962 8.00014 3.5C10.3851 3.5 12.6276 5.2175 13.9326 8C13.7331 8.42345 13.5076 8.83422 13.2576 9.23C13.1783 9.35286 13.1366 9.49624 13.1376 9.6425C13.1393 9.80618 13.1945 9.96482 13.2947 10.0942C13.395 10.2236 13.5348 10.3166 13.6929 10.3591C13.851 10.4016 14.0186 10.3912 14.1702 10.3296C14.3218 10.2679 14.4491 10.1583 14.5326 10.0175C14.8821 9.46845 15.1856 8.89149 15.4401 8.2925C15.4804 8.19892 15.5011 8.09812 15.5011 7.99625C15.5011 7.89438 15.4804 7.79359 15.4401 7.7C13.9251 4.1825 11.0751 2 8.00014 2C7.64814 1.99823 7.2967 2.02835 6.95014 2.09C6.85165 2.10675 6.75742 2.14272 6.67283 2.19588C6.58824 2.24904 6.51496 2.31834 6.45715 2.39983C6.39935 2.48131 6.35816 2.57338 6.33594 2.67078C6.31371 2.76819 6.3109 2.86901 6.32764 2.9675C6.34438 3.06599 6.38036 3.16022 6.43352 3.24481C6.48668 3.3294 6.55598 3.40268 6.63747 3.46049C6.71895 3.51829 6.81102 3.55948 6.90842 3.5817C7.00582 3.60393 7.10665 3.60675 7.20514 3.59V3.56ZM1.78264 0.717502C1.71271 0.647573 1.62969 0.592102 1.53833 0.554257C1.44696 0.516412 1.34903 0.496933 1.25014 0.496933C1.15124 0.496933 1.05332 0.516412 0.961952 0.554257C0.870586 0.592102 0.787568 0.647573 0.717639 0.717502C0.576411 0.858729 0.49707 1.05028 0.49707 1.25C0.49707 1.44973 0.576411 1.64127 0.717639 1.7825L3.04264 4.1C1.98182 5.12115 1.13753 6.34549 0.560139 7.7C0.518841 7.79463 0.497525 7.89676 0.497525 8C0.497525 8.10325 0.518841 8.20538 0.560139 8.3C2.07514 11.8175 4.92514 14 8.00014 14C9.34797 13.9907 10.664 13.5894 11.7876 12.845L14.2176 15.2825C14.2874 15.3528 14.3703 15.4086 14.4617 15.4467C14.5531 15.4847 14.6511 15.5044 14.7501 15.5044C14.8491 15.5044 14.9472 15.4847 15.0386 15.4467C15.13 15.4086 15.2129 15.3528 15.2826 15.2825C15.3529 15.2128 15.4087 15.1298 15.4468 15.0384C15.4849 14.947 15.5045 14.849 15.5045 14.75C15.5045 14.651 15.4849 14.553 15.4468 14.4616C15.4087 14.3702 15.3529 14.2872 15.2826 14.2175L1.78264 0.717502ZM6.55264 7.61L8.39014 9.4475C8.26338 9.48385 8.132 9.50154 8.00014 9.5C7.60231 9.5 7.22078 9.34197 6.93948 9.06066C6.65817 8.77936 6.50014 8.39783 6.50014 8C6.4986 7.86814 6.51629 7.73676 6.55264 7.61ZM8.00014 12.5C5.61514 12.5 3.37264 10.7825 2.07514 8C2.55971 6.93031 3.24744 5.96493 4.10014 5.1575L5.42764 6.5C5.11582 7.0691 4.99694 7.72396 5.08883 8.36634C5.18072 9.00873 5.47843 9.604 5.93728 10.0629C6.39614 10.5217 6.99141 10.8194 7.6338 10.9113C8.27618 11.0032 8.93104 10.8843 9.50014 10.5725L10.6926 11.75C9.87596 12.2307 8.94771 12.4892 8.00014 12.5Z" fill="#3564A6"/>
</svg>
