<svg width="16" height="12" viewBox="0 0 16 12" fill="none" xmlns="http://www.w3.org/2000/svg">
<path d="M15.4397 5.70008C13.9247 2.18258 11.0747 7.62939e-05 7.99968 7.62939e-05C4.92468 7.62939e-05 2.07468 2.18258 0.559684 5.70008C0.518386 5.7947 0.49707 5.89683 0.49707 6.00007C0.49707 6.10332 0.518386 6.20545 0.559684 6.30007C2.07468 9.81757 4.92468 12.0001 7.99968 12.0001C11.0747 12.0001 13.9247 9.81757 15.4397 6.30007C15.481 6.20545 15.5023 6.10332 15.5023 6.00007C15.5023 5.89683 15.481 5.7947 15.4397 5.70008ZM7.99968 10.5001C5.62218 10.5001 3.37218 8.78257 2.07468 6.00007C3.37218 3.21758 5.62218 1.50008 7.99968 1.50008C10.3772 1.50008 12.6272 3.21758 13.9247 6.00007C12.6272 8.78257 10.3772 10.5001 7.99968 10.5001ZM7.99968 3.00008C7.40634 3.00008 6.82632 3.17602 6.33297 3.50567C5.83963 3.83531 5.45511 4.30385 5.22804 4.85202C5.00098 5.4002 4.94157 6.0034 5.05733 6.58535C5.17308 7.16729 5.45881 7.70184 5.87836 8.1214C6.29792 8.54095 6.83247 8.82667 7.41441 8.94243C7.99636 9.05819 8.59956 8.99878 9.14773 8.77171C9.69591 8.54465 10.1644 8.16013 10.4941 7.66678C10.8237 7.17344 10.9997 6.59342 10.9997 6.00007C10.9997 5.20443 10.6836 4.44136 10.121 3.87875C9.5584 3.31615 8.79533 3.00008 7.99968 3.00008ZM7.99968 7.50007C7.70301 7.50007 7.413 7.4121 7.16633 7.24728C6.91965 7.08246 6.7274 6.84819 6.61386 6.5741C6.50033 6.30001 6.47063 5.99841 6.52851 5.70744C6.58638 5.41647 6.72925 5.14919 6.93902 4.93942C7.1488 4.72964 7.41608 4.58677 7.70705 4.5289C7.99802 4.47102 8.29962 4.50072 8.57371 4.61426C8.8478 4.72779 9.08207 4.92005 9.24689 5.16672C9.41171 5.41339 9.49968 5.7034 9.49968 6.00007C9.49968 6.3979 9.34165 6.77943 9.06034 7.06073C8.77904 7.34204 8.39751 7.50007 7.99968 7.50007Z" fill="#3564A6"/>
</svg>
